<mxfile host="app.diagrams.net" modified="2025-08-15T10:00:00.000Z" agent="5.0" version="24.7.8" etag="config-flow-v2" type="device">
  <diagram name="SmartReviewConfig" id="smart-review-config">
    <mxGraphModel dx="1422" dy="754" grid="1" gridSize="10" guides="1" tooltips="1" connect="1" arrows="1" fold="1" page="1" pageScale="1" pageWidth="1654" pageHeight="2336" math="0" shadow="0">
      <root>
        <mxCell id="0" />
        <mxCell id="1" parent="0" />
        
        <mxCell id="title1" value="Smart Review 設定管理システム フロー図" style="text;html=1;align=center;verticalAlign=middle;fontSize=18;fontStyle=1;fontColor=#000000" vertex="1" parent="1">
          <mxGeometry x="500" y="20" width="400" height="30" as="geometry" />
        </mxCell>
        
        <mxCell id="subtitle1" value="smart-review-config.js" style="text;html=1;align=center;verticalAlign=middle;fontSize=14;fontColor=#000000" vertex="1" parent="1">
          <mxGeometry x="500" y="50" width="400" height="20" as="geometry" />
        </mxCell>
        
        <mxCell id="start1" value="開始&#10;SmartReviewConfig" style="ellipse;html=1;fillColor=#e1d5e7;strokeColor=#9673a6;fontSize=14;fontStyle=1;fontColor=#000000" vertex="1" parent="1">
          <mxGeometry x="600" y="100" width="200" height="80" as="geometry" />
        </mxCell>
        
        <mxCell id="init1" value="SmartReviewConfig&#10;コンストラクタ実行" style="rounded=1;html=1;fillColor=#d5e8d4;strokeColor=#82b366;fontSize=12;fontStyle=1;fontColor=#000000" vertex="1" parent="1">
          <mxGeometry x="600" y="220" width="200" height="60" as="geometry" />
        </mxCell>
        
        <mxCell id="cache1" value="configCache = null&#10;キャッシュ初期化" style="rounded=1;html=1;fillColor=#e1d5e7;strokeColor=#9673a6;fontSize=11;fontColor=#000000" vertex="1" parent="1">
          <mxGeometry x="600" y="320" width="200" height="50" as="geometry" />
        </mxCell>
        
        <mxCell id="paths1" value="設定ファイルパス配列&#10;[.smart-review.json,&#10;~/.claude/smart-review.json,&#10;~/.config/smart-review.json]" style="rounded=1;html=1;fillColor=#fff2cc;strokeColor=#d6b656;fontSize=10;fontColor=#000000" vertex="1" parent="1">
          <mxGeometry x="600" y="410" width="200" height="70" as="geometry" />
        </mxCell>
        
        <mxCell id="method1" value="メソッド呼び出し" style="rhombus;html=1;fillColor=#fff2cc;strokeColor=#d6b656;fontSize=12;fontStyle=1;fontColor=#000000" vertex="1" parent="1">
          <mxGeometry x="600" y="520" width="200" height="80" as="geometry" />
        </mxCell>
        
        <mxCell id="getagents1" value="getAgents()" style="rounded=1;html=1;fillColor=#d5e8d4;strokeColor=#82b366;fontSize=12;fontStyle=1;fontColor=#000000" vertex="1" parent="1">
          <mxGeometry x="300" y="640" width="180" height="60" as="geometry" />
        </mxCell>
        
        <mxCell id="getsecurity1" value="getSecuritySettings()" style="rounded=1;html=1;fillColor=#d5e8d4;strokeColor=#82b366;fontSize=12;fontStyle=1;fontColor=#000000" vertex="1" parent="1">
          <mxGeometry x="610" y="640" width="180" height="60" as="geometry" />
        </mxCell>
        
        <mxCell id="getperf1" value="getPerformanceSettings()" style="rounded=1;html=1;fillColor=#d5e8d4;strokeColor=#82b366;fontSize=12;fontStyle=1;fontColor=#000000" vertex="1" parent="1">
          <mxGeometry x="920" y="640" width="180" height="60" as="geometry" />
        </mxCell>
        
        <mxCell id="load1" value="loadConfig()&#10;設定読み込み" style="rounded=1;html=1;fillColor=#ffe6cc;strokeColor=#d79b00;fontSize=12;fontStyle=1;fontColor=#000000" vertex="1" parent="1">
          <mxGeometry x="390" y="740" width="180" height="50" as="geometry" />
        </mxCell>
        
        <mxCell id="check1" value="キャッシュ確認" style="rhombus;html=1;fillColor=#fff2cc;strokeColor=#d6b656;fontSize=11;fontColor=#000000" vertex="1" parent="1">
          <mxGeometry x="410" y="830" width="140" height="60" as="geometry" />
        </mxCell>
        
        <mxCell id="return1" value="キャッシュ返却" style="rounded=1;html=1;fillColor=#e1d5e7;strokeColor=#9673a6;fontSize=10;fontColor=#000000" vertex="1" parent="1">
          <mxGeometry x="250" y="840" width="120" height="40" as="geometry" />
        </mxCell>
        
        <mxCell id="search1" value="設定ファイル探索&#10;(ループ処理)" style="rounded=1;html=1;fillColor=#f8cecc;strokeColor=#b85450;fontSize=10;fontColor=#000000" vertex="1" parent="1">
          <mxGeometry x="390" y="930" width="180" height="50" as="geometry" />
        </mxCell>
        
        <mxCell id="read1" value="ファイル読み込み&#10;fs.readFile()" style="rounded=1;html=1;fillColor=#ffe6cc;strokeColor=#d79b00;fontSize=10;fontColor=#000000" vertex="1" parent="1">
          <mxGeometry x="390" y="1020" width="180" height="50" as="geometry" />
        </mxCell>
        
        <mxCell id="parse1" value="JSON.parse()&#10;JSON解析" style="rounded=1;html=1;fillColor=#ffe6cc;strokeColor=#d79b00;fontSize=10;fontColor=#000000" vertex="1" parent="1">
          <mxGeometry x="390" y="1110" width="180" height="50" as="geometry" />
        </mxCell>
        
        <mxCell id="validate1" value="validateConfig()&#10;設定検証" style="rounded=1;html=1;fillColor=#d5e8d4;strokeColor=#82b366;fontSize=10;fontColor=#000000" vertex="1" parent="1">
          <mxGeometry x="390" y="1200" width="180" height="50" as="geometry" />
        </mxCell>
        
        <mxCell id="merge1" value="mergeWithEnv()&#10;環境変数マージ" style="rounded=1;html=1;fillColor=#d5e8d4;strokeColor=#82b366;fontSize=10;fontColor=#000000" vertex="1" parent="1">
          <mxGeometry x="390" y="1290" width="180" height="50" as="geometry" />
        </mxCell>
        
        <mxCell id="savecache1" value="キャッシュ保存" style="rounded=1;html=1;fillColor=#e1d5e7;strokeColor=#9673a6;fontSize=10;fontColor=#000000" vertex="1" parent="1">
          <mxGeometry x="390" y="1380" width="180" height="50" as="geometry" />
        </mxCell>
        
        <mxCell id="processagents1" value="エージェント配列処理&#10;パス解決・デフォルト設定" style="rounded=1;html=1;fillColor=#d5e8d4;strokeColor=#82b366;fontSize=10;fontColor=#000000" vertex="1" parent="1">
          <mxGeometry x="300" y="1470" width="180" height="50" as="geometry" />
        </mxCell>
        
        <mxCell id="default1" value="getDefaultConfig()&#10;デフォルト設定返却" style="rounded=1;html=1;fillColor=#d5e8d4;strokeColor=#82b366;fontSize=11;fontColor=#000000" vertex="1" parent="1">
          <mxGeometry x="150" y="930" width="180" height="50" as="geometry" />
        </mxCell>
        
        <mxCell id="success1" value="成功終了&#10;設定オブジェクト返却" style="ellipse;html=1;fillColor=#d5e8d4;strokeColor=#82b366;fontSize=14;fontStyle=1;fontColor=#000000" vertex="1" parent="1">
          <mxGeometry x="600" y="1560" width="200" height="80" as="geometry" />
        </mxCell>
        
        <!-- Main Flow Arrows -->
        <mxCell id="arrow1" style="edgeStyle=orthogonalEdgeStyle;rounded=0;orthogonalLoop=1;jettySize=auto;html=1;" edge="1" parent="1" source="start1" target="init1">
          <mxGeometry relative="1" as="geometry" />
        </mxCell>
        
        <mxCell id="arrow2" style="edgeStyle=orthogonalEdgeStyle;rounded=0;orthogonalLoop=1;jettySize=auto;html=1;" edge="1" parent="1" source="init1" target="cache1">
          <mxGeometry relative="1" as="geometry" />
        </mxCell>
        
        <mxCell id="arrow3" style="edgeStyle=orthogonalEdgeStyle;rounded=0;orthogonalLoop=1;jettySize=auto;html=1;" edge="1" parent="1" source="cache1" target="paths1">
          <mxGeometry relative="1" as="geometry" />
        </mxCell>
        
        <mxCell id="arrow4" style="edgeStyle=orthogonalEdgeStyle;rounded=0;orthogonalLoop=1;jettySize=auto;html=1;" edge="1" parent="1" source="paths1" target="method1">
          <mxGeometry relative="1" as="geometry" />
        </mxCell>
        
        <!-- Method Branch Arrows -->
        <mxCell id="arrow5" style="edgeStyle=orthogonalEdgeStyle;rounded=0;orthogonalLoop=1;jettySize=auto;html=1;" edge="1" parent="1" source="method1" target="getagents1">
          <mxGeometry relative="1" as="geometry" />
        </mxCell>
        <mxCell id="arrow5label" value="getAgents" style="edgeLabel;html=1;align=center;verticalAlign=middle;resizable=0;points=[];fontSize=10;fontColor=#000000" vertex="1" connectable="0" parent="arrow5">
          <mxGeometry x="-0.1" y="-2" relative="1" as="geometry">
            <mxPoint as="offset" />
          </mxGeometry>
        </mxCell>
        
        <mxCell id="arrow6" style="edgeStyle=orthogonalEdgeStyle;rounded=0;orthogonalLoop=1;jettySize=auto;html=1;" edge="1" parent="1" source="method1" target="getsecurity1">
          <mxGeometry relative="1" as="geometry" />
        </mxCell>
        <mxCell id="arrow6label" value="getSecurity" style="edgeLabel;html=1;align=center;verticalAlign=middle;resizable=0;points=[];fontSize=10;fontColor=#000000" vertex="1" connectable="0" parent="arrow6">
          <mxGeometry x="-0.1" y="-2" relative="1" as="geometry">
            <mxPoint as="offset" />
          </mxGeometry>
        </mxCell>
        
        <mxCell id="arrow7" style="edgeStyle=orthogonalEdgeStyle;rounded=0;orthogonalLoop=1;jettySize=auto;html=1;" edge="1" parent="1" source="method1" target="getperf1">
          <mxGeometry relative="1" as="geometry" />
        </mxCell>
        <mxCell id="arrow7label" value="getPerformance" style="edgeLabel;html=1;align=center;verticalAlign=middle;resizable=0;points=[];fontSize=10;fontColor=#000000" vertex="1" connectable="0" parent="arrow7">
          <mxGeometry x="-0.1" y="-2" relative="1" as="geometry">
            <mxPoint as="offset" />
          </mxGeometry>
        </mxCell>
        
        <!-- getAgents Flow -->
        <mxCell id="arrow8" style="edgeStyle=orthogonalEdgeStyle;rounded=0;orthogonalLoop=1;jettySize=auto;html=1;" edge="1" parent="1" source="getagents1" target="load1">
          <mxGeometry relative="1" as="geometry" />
        </mxCell>
        
        <mxCell id="arrow9" style="edgeStyle=orthogonalEdgeStyle;rounded=0;orthogonalLoop=1;jettySize=auto;html=1;" edge="1" parent="1" source="load1" target="check1">
          <mxGeometry relative="1" as="geometry" />
        </mxCell>
        
        <!-- Cache Check Branch -->
        <mxCell id="arrow10" style="edgeStyle=orthogonalEdgeStyle;rounded=0;orthogonalLoop=1;jettySize=auto;html=1;" edge="1" parent="1" source="check1" target="return1">
          <mxGeometry relative="1" as="geometry">
            <Array as="points">
              <mxPoint x="380" y="860" />
              <mxPoint x="310" y="860" />
            </Array>
          </mxGeometry>
        </mxCell>
        <mxCell id="arrow10label" value="あり" style="edgeLabel;html=1;align=center;verticalAlign=middle;resizable=0;points=[];fontSize=10;fontColor=#000000" vertex="1" connectable="0" parent="arrow10">
          <mxGeometry x="-0.1" y="-2" relative="1" as="geometry">
            <mxPoint as="offset" />
          </mxGeometry>
        </mxCell>
        
        <mxCell id="arrow11" style="edgeStyle=orthogonalEdgeStyle;rounded=0;orthogonalLoop=1;jettySize=auto;html=1;" edge="1" parent="1" source="check1" target="search1">
          <mxGeometry relative="1" as="geometry" />
        </mxCell>
        <mxCell id="arrow11label" value="なし" style="edgeLabel;html=1;align=center;verticalAlign=middle;resizable=0;points=[];fontSize=10;fontColor=#000000" vertex="1" connectable="0" parent="arrow11">
          <mxGeometry x="-0.1" y="-2" relative="1" as="geometry">
            <mxPoint as="offset" />
          </mxGeometry>
        </mxCell>
        
        <!-- File Processing Flow -->
        <mxCell id="arrow12" style="edgeStyle=orthogonalEdgeStyle;rounded=0;orthogonalLoop=1;jettySize=auto;html=1;" edge="1" parent="1" source="search1" target="read1">
          <mxGeometry relative="1" as="geometry" />
        </mxCell>
        
        <mxCell id="arrow13" style="edgeStyle=orthogonalEdgeStyle;rounded=0;orthogonalLoop=1;jettySize=auto;html=1;" edge="1" parent="1" source="read1" target="parse1">
          <mxGeometry relative="1" as="geometry" />
        </mxCell>
        
        <mxCell id="arrow14" style="edgeStyle=orthogonalEdgeStyle;rounded=0;orthogonalLoop=1;jettySize=auto;html=1;" edge="1" parent="1" source="parse1" target="validate1">
          <mxGeometry relative="1" as="geometry" />
        </mxCell>
        
        <mxCell id="arrow15" style="edgeStyle=orthogonalEdgeStyle;rounded=0;orthogonalLoop=1;jettySize=auto;html=1;" edge="1" parent="1" source="validate1" target="merge1">
          <mxGeometry relative="1" as="geometry" />
        </mxCell>
        
        <mxCell id="arrow16" style="edgeStyle=orthogonalEdgeStyle;rounded=0;orthogonalLoop=1;jettySize=auto;html=1;" edge="1" parent="1" source="merge1" target="savecache1">
          <mxGeometry relative="1" as="geometry" />
        </mxCell>
        
        <mxCell id="arrow17" style="edgeStyle=orthogonalEdgeStyle;rounded=0;orthogonalLoop=1;jettySize=auto;html=1;" edge="1" parent="1" source="savecache1" target="processagents1">
          <mxGeometry relative="1" as="geometry" />
        </mxCell>
        
        <mxCell id="arrow18" style="edgeStyle=orthogonalEdgeStyle;rounded=0;orthogonalLoop=1;jettySize=auto;html=1;" edge="1" parent="1" source="processagents1" target="success1">
          <mxGeometry relative="1" as="geometry">
            <Array as="points">
              <mxPoint x="390" y="1540" />
              <mxPoint x="570" y="1540" />
              <mxPoint x="570" y="1600" />
            </Array>
          </mxGeometry>
        </mxCell>
        
        <!-- Default Config Flow -->
        <mxCell id="arrow19" style="edgeStyle=orthogonalEdgeStyle;rounded=0;orthogonalLoop=1;jettySize=auto;html=1;" edge="1" parent="1" source="search1" target="default1">
          <mxGeometry relative="1" as="geometry">
            <Array as="points">
              <mxPoint x="350" y="955" />
              <mxPoint x="240" y="955" />
            </Array>
          </mxGeometry>
        </mxCell>
        <mxCell id="arrow19label" value="全て失敗" style="edgeLabel;html=1;align=center;verticalAlign=middle;resizable=0;points=[];fontSize=10;fontColor=#000000" vertex="1" connectable="0" parent="arrow19">
          <mxGeometry x="-0.1" y="-2" relative="1" as="geometry">
            <mxPoint as="offset" />
          </mxGeometry>
        </mxCell>
        
        <mxCell id="arrow20" style="edgeStyle=orthogonalEdgeStyle;rounded=0;orthogonalLoop=1;jettySize=auto;html=1;" edge="1" parent="1" source="default1" target="success1">
          <mxGeometry relative="1" as="geometry">
            <Array as="points">
              <mxPoint x="240" y="1600" />
            </Array>
          </mxGeometry>
        </mxCell>
        
      </root>
    </mxGraphModel>
  </diagram>
</mxfile>